<?xml version="1.0" standalone="no"?><!DOCTYPE svg PUBLIC "-//W3C//DTD SVG 1.1//EN" "http://www.w3.org/Graphics/SVG/1.1/DTD/svg11.dtd"><svg t="1608276875678" class="icon" viewBox="0 0 1024 1024" version="1.1" xmlns="http://www.w3.org/2000/svg" p-id="2526" xmlns:xlink="http://www.w3.org/1999/xlink" width="200" height="200"><defs><style type="text/css"></style></defs><path fill = "red" d="M853.32992 102.38976H569.58976c-18.76992 0-45.0048 10.86464-58.2656 24.12544L122.3168 515.56352c-26.56256 26.54208-26.56256 70.00064 0 96.54272l289.64864 289.60768c26.50112 26.53184 69.95968 26.53184 96.50176 0l389.00736-388.94592C910.72512 499.49696 921.6 473.23136 921.6 454.5024V170.65984c0-37.49888-30.73024-68.27008-68.27008-68.27008z m0 357.9392l-393.13408 393.1136-289.60768-289.60768 206.57152-206.60224C474.32704 260.096 529.8176 204.5952 561.52064 170.65984h291.80928v289.66912z" p-id="2527"></path><path fill = "red" d="M785.07008 307.22048c0 37.67296-30.57664 68.27008-68.28032 68.27008s-68.27008-30.59712-68.27008-68.27008c0-37.7344 30.5664-68.27008 68.27008-68.27008s68.28032 30.54592 68.28032 68.27008z" p-id="2528"></path></svg>